<?xml version="1.0" encoding="utf-8"?>
<!-- Generator: Adobe Adobe Illustrator 24.2.0, SVG Export Plug-In . SVG Version: 6.00 Build 0)  -->
<svg version="1.1" id="Layer_1" xmlns="http://www.w3.org/2000/svg" xmlns:xlink="http://www.w3.org/1999/xlink" x="0px" y="0px"
	 viewBox="0 0 640 480" style="enable-background:new 0 0 640 480;" xml:space="preserve">
<g>
	<g>
		<path d="M309.46,236.85c-3.54-6.1-5.5-12.58-6.81-19.28c-1.44-7.38-2.05-14.85-1.83-22.37c0.17-5.54,0.67-11.07,1.85-16.51
			c0.33-1.52,0.8-3.02,1.27-4.5c0.42-1.32,1.23-2.14,2.77-1.98c0.45,0.05,0.94-0.04,1.39-0.15c3.35-0.86,6.67-0.32,9.99,0.16
			c1.1,0.16,2.06,0.76,2.88,1.5c1.61,1.47,3.31,2.88,4.74,4.52c8.77,10.1,14.71,21.66,17.42,34.79c1.57,7.56,1.82,15.18,0.26,22.8
			c-0.78,3.77-2.05,7.37-3.97,10.72c-1.21,2.11-2.65,4.05-4.39,5.75c-4.36,4.26-9.6,6.22-15.69,6.13c-6.08-0.09-11-2.53-15.04-6.98
			c-3.62-3.99-6.18-8.61-8.22-13.55c-2.51-6.1-4.09-12.45-5.15-18.94c-1.37-8.36-1.73-16.78-1.34-25.22
			c0.35-7.73,1.22-15.4,3.14-22.93c1.09-4.29,3.1-8.15,5.24-11.97c0.58-1.03,1.32-1.93,2.51-2.35c1.46-0.52,2.78-0.33,3.91,0.74
			c1.06,1,1.36,2.72,0.77,4.12c-0.06,0.14-0.14,0.28-0.21,0.42c-3.2,6.34-4.99,13.1-6.11,20.08c-0.9,5.64-1.34,11.33-1.26,17.03
			c0.15,10.04,1.37,19.93,4.6,29.5c1.28,3.78,2.86,7.43,4.98,10.82c1.29,2.06,2.76,3.98,4.57,5.62c2.18,1.98,4.64,3.43,7.62,3.83
			c1.98,0.26,3.84,0.01,5.64-1c2.39-1.34,4.26-3.15,5.66-5.46c1.77-2.91,2.82-6.08,3.37-9.42c1.17-7.05,0.6-14.02-1.17-20.9
			c-1.42-5.55-3.63-10.79-6.44-15.79c-0.27-0.47-0.59-0.91-0.9-1.36c-0.03-0.04-0.13-0.03-0.36-0.08c-0.31,0.88-0.06,1.79-0.05,2.67
			c0.01,0.94,0.06,1.87,0.1,2.81c0.04,0.94,0.09,1.87,0.11,2.81c0.02,0.94,0.03,1.87,0.02,2.81c-0.01,0.94-0.04,1.87-0.07,2.81
			c-0.03,0.94-0.06,1.87-0.09,2.81c-0.03,0.94-0.05,1.87-0.09,2.81c-0.04,0.94-0.08,1.87-0.15,2.81c-0.07,1.01-0.16,2.02-0.24,3.04
			c-0.07,0.93-0.12,1.87-0.2,2.8s-0.18,1.87-0.27,2.8c-0.09,0.93-0.18,1.87-0.27,2.8c-0.09,0.93-0.19,1.87-0.29,2.8
			c-0.11,0.93-0.24,1.86-0.36,2.79c-0.12,0.93-0.24,1.86-0.36,2.79c-0.12,0.93-0.23,1.86-0.35,2.79c-0.12,0.93-0.24,1.86-0.38,2.78
			c-0.14,0.92-0.3,1.84-0.48,2.89c-0.56,0.09-1.08,0.27-1.59,0.23c-2.19-0.16-4.06-1.11-5.67-2.54c-1.04-0.93-2-1.97-2.89-3.05
			C310.81,238.98,310.22,237.96,309.46,236.85z"/>
		<path d="M303.99,276.6c1.94-0.14,3.65-0.31,5.36-0.4c1.7-0.08,3.37-0.54,4.99-0.57c0.53,0.91,0.35,1.71,0.37,2.47
			c0.22,7.34,0.33,14.68,0.65,22.02c0.4,9.21,1.14,18.39,2.13,27.56c1.05,9.79,2.43,19.53,4.35,29.19c1.74,8.74,3.9,17.37,7,25.74
			c1.44,3.89,3.08,7.68,5.14,11.29c1.47,2.59,3.12,5.05,5.2,7.19c1.48,1.53,3.13,2.81,5.13,3.61c0.58,0.23,1.14,0.52,1.65,0.87
			c1.93,1.36,2.61,3.71,1.71,5.8c-0.9,2.09-3.08,3.3-5.35,2.84c-0.98-0.2-1.95-0.58-2.86-1c-2.51-1.15-4.68-2.8-6.65-4.73
			c-2.53-2.48-4.61-5.3-6.44-8.32c-3.09-5.1-5.42-10.55-7.4-16.16c-3.07-8.71-5.26-17.65-7.01-26.71
			c-2.19-11.28-3.72-22.65-4.76-34.09c-0.06-0.62-0.21-1.23-0.34-1.84c-0.03-0.11-0.19-0.2-0.33-0.32
			c-0.38,3.52-0.71,7.01-1.13,10.5c-2.01,16.94-5,33.67-10.3,49.93c-1.79,5.5-3.89,10.88-6.51,16.05
			c-1.84,3.63-3.92,7.11-6.49,10.29c-1.98,2.44-4.19,4.63-6.87,6.31c-2.42,1.52-5.02,2.52-7.9,2.66c-0.62,0.03-1.26,0.04-1.87-0.05
			c-2.31-0.33-4.03-2.15-4.2-4.38c-0.18-2.4,1.26-4.41,3.65-5.05c0.52-0.14,1.07-0.24,1.61-0.27c1.63-0.09,3.06-0.72,4.26-1.75
			c1.3-1.11,2.55-2.31,3.66-3.61c2.34-2.75,4.09-5.9,5.69-9.12c2.68-5.4,4.74-11.04,6.52-16.8c2.87-9.27,4.93-18.72,6.58-28.27
			c1.62-9.39,2.78-18.85,3.59-28.35c0.64-7.55,1.13-15.11,1.23-22.69c0.08-6.17,0.07-12.34,0.11-18.51c0-0.37,0.09-0.74,0.15-1.26
			c1.01-0.03,1.93-0.05,2.85-0.07C302.05,276.61,302.91,276.61,303.99,276.6z"/>
		<path d="M282.54,258.69c3.88,2.45,7.92,4.08,12.25,4.95c3.85,0.77,7.76,0.81,11.66,0.47c4.61-0.4,9.07-1.54,13.53-2.7
			c1.27-0.33,2.6-0.49,3.91-0.61c0.5-0.04,1.11,0.14,1.52,0.44c2.88,2.11,2.52,6.22-0.34,7.56c-2.7,1.26-5.45,2.36-8.36,2.98
			c-4.13,0.89-8.3,1.49-12.53,1.55c-3.75,0.06-7.48,0.08-11.22-0.41c-3.13-0.41-6.13-1.22-8.99-2.48
			c-13.52-5.98-22.17-16.19-25.85-30.47c-2.97-11.54-1.59-22.8,3.13-33.65c5.15-11.83,13.38-20.98,24.41-27.63
			c0.53-0.32,1.09-0.6,1.66-0.87c0.11-0.05,0.29,0.04,0.55,0.09c-0.45,3.85-0.89,7.71-1.37,11.83c-0.49,0.4-1.15,0.94-1.8,1.48
			c-7.94,6.52-13.55,14.61-16.49,24.49c-1.97,6.63-2.41,13.37-1.02,20.15C269.15,245.49,274.17,253.14,282.54,258.69z"/>
		<path d="M308.67,163.96c0.28-1.82,0.35-3.45,0.03-5.08c-0.34-1.72-0.95-3.31-2.25-4.54c-1.7-1.62-3.67-2.27-6.01-1.63
			c-1.15,0.32-2.19,0.82-3.14,1.52c-0.55,0.41-1.1,0.83-1.66,1.26c-2.63-4.52-1.61-14.74,5.43-20.7c7.44-6.29,17.89-6.23,25.17-0.16
			c7.31,6.09,9,16.69,4.13,24.83c-4.7,7.85-14.39,11.43-22.57,8.21c0.07-0.4,0.13-0.83,0.24-1.25
			C308.23,165.66,308.44,164.91,308.67,163.96z M305.41,141.7c-2.49,0.87-2.32,3.57-1.07,5c1.28,1.47,3.37,1.25,4.29-0.48
			c0.55-1.02,0.67-2.09,0.06-3.13C308.05,141.98,307.1,141.41,305.41,141.7z"/>
		<path d="M299.87,251.16c2.93,3.73,6.25,6.74,10.71,8.8c-0.48,0.3-0.68,0.52-0.91,0.55c-4.42,0.64-8.84,0.84-13.28,0.16
			c-1.09-0.17-1.69-0.6-1.84-1.72c-0.12-0.85-0.4-1.67-0.55-2.51c-1.51-8.05-3.61-15.98-4.75-24.1c-0.34-2.47-0.72-4.94-1.06-7.41
			c-0.06-0.45-0.01-0.92,0.17-1.42c0.37,1.46,0.74,2.92,1.1,4.37c1.36,5.38,3.12,10.62,5.63,15.59
			C296.44,246.13,297.98,248.66,299.87,251.16z"/>
	</g>
</g>
</svg>
