<?xml version="1.0" encoding="utf-8"?>
<!-- Generator: Adobe Adobe Illustrator 24.2.0, SVG Export Plug-In . SVG Version: 6.00 Build 0)  -->
<svg version="1.1" id="Layer_1" xmlns="http://www.w3.org/2000/svg" xmlns:xlink="http://www.w3.org/1999/xlink" x="0px" y="0px"
	 viewBox="0 0 640 480" style="enable-background:new 0 0 640 480;" xml:space="preserve">
<g>
	<g>
		<path d="M319.49,359.07c-1.52,10.36-3.86,20.3-7.5,29.91c-2.14,5.64-4.7,11.07-7.96,16.15c-2.2,3.43-4.67,6.65-7.63,9.46
			c-0.79,0.75-1.63,1.46-2.49,2.13c-0.81,0.64-1.75,1.02-2.79,1.1c-1.85,0.15-3.4-0.48-4.5-1.98c-1.17-1.58-1.34-3.34-0.48-5.09
			c0.4-0.82,1.02-1.59,1.7-2.2c3.86-3.4,6.82-7.5,9.33-11.95c3.36-5.95,5.81-12.27,7.77-18.8c2.29-7.65,3.84-15.45,4.8-23.38
			c0.82-6.76,1.26-13.54,1.18-20.34c-0.13-10.81-1.21-21.52-4.1-31.98c-1.19-4.3-2.68-8.49-4.67-12.49c-1.3-2.59-2.79-5.06-4.64-7.3
			c-1.3-1.57-2.77-2.96-4.44-4.15c-2.67-1.9-5.34-3.8-7.93-5.81c-15.46-11.97-24.85-27.61-28.02-46.9
			c-2.5-15.2-0.41-29.88,5.6-44.03c0.36-0.86,0.72-1.72,1.06-2.54c-0.61-0.89-1.55-0.91-2.33-1.17
			c-7.39-2.46-14.27-5.92-20.61-10.45c-10.04-7.17-17.95-16.2-23.32-27.35c-4.88-10.13-7.07-20.84-6.19-32.07
			c1.13-14.49,6.88-26.96,16.94-37.43c0.54-0.56,1.11-1.11,1.74-1.56c2.25-1.61,5.22-1.37,7.07,0.51c1.8,1.83,2.03,4.66,0.49,6.89
			c-0.53,0.76-1.2,1.43-1.84,2.11c-6.88,7.31-11.28,15.86-12.98,25.78c-1.57,9.16-0.57,18.08,2.77,26.71
			c5.19,13.42,14.33,23.47,26.63,30.75c5.41,3.2,11.19,5.53,17.28,7.09c2.42,0.62,4.88,0.96,7.39,1.11c3.19,0.2,6.37,0.68,9.56,0.93
			c3.89,0.3,7.79,0.61,11.69,0.71c8.9,0.22,17.81,0.19,26.7-0.41c13.56-0.92,27.07-2.21,40.46-4.68c12.22-2.26,24.31-5.04,36-9.35
			c3.96-1.46,7.84-3.11,11.54-5.14c2.33-1.28,4.56-2.72,6.57-4.47c0.58-0.51,1.22-0.99,1.91-1.34c1.99-1.02,4.31-0.61,5.82,0.94
			c1.51,1.55,1.9,3.91,0.8,5.85c-0.49,0.86-1.19,1.64-1.92,2.33c-1.88,1.78-4.03,3.21-6.24,4.54c-4.17,2.49-8.58,4.48-13.1,6.23
			c-9.34,3.62-18.99,6.21-28.76,8.36c-11.53,2.53-23.18,4.33-34.91,5.58c-5.59,0.6-11.2,1.01-16.8,1.47
			c-8.09,0.66-16.19,1.27-24.29,1.91c-2.97,0.23-5.88,0.81-8.77,1.49c-1.16,0.28-2.16,0.82-3.02,1.68
			c-9.42,9.46-14.8,20.78-15.62,34.15c-0.58,9.5,1.42,18.5,5.7,26.96c2.99,5.91,6.99,11.08,11.92,15.53c2.1,1.9,4.43,3.44,7,4.64
			c5.54,2.59,11.35,4.41,17.27,5.86c7.9,1.93,15.92,3.14,24.02,3.95c11.45,1.14,22.92,1.36,34.4,0.84
			c16.51-0.74,32.81-2.89,48.74-7.45c5.64-1.61,11.16-3.56,16.45-6.09c3.18-1.52,6.24-3.23,9.06-5.36c2.51-1.9,4.74-4.06,6.21-6.92
			c0.32-0.61,0.74-1.21,1.25-1.68c1.57-1.46,3.41-1.89,5.41-1.03c1.98,0.85,2.98,2.44,3.03,4.61c0.03,1.12-0.33,2.15-0.82,3.14
			c-1.13,2.25-2.64,4.24-4.38,6.05c-2.4,2.49-5.14,4.56-8.05,6.4c-4.84,3.06-10.02,5.42-15.37,7.42
			c-8.36,3.13-16.97,5.36-25.72,7.05c-10.75,2.07-21.6,3.32-32.53,3.94c-8.67,0.49-17.33,0.57-26,0.17
			c-13.36-0.61-26.61-2.16-39.61-5.49c-0.51-0.13-1.03-0.22-1.46-0.31c-0.53,0.63-0.11,1.01,0.07,1.4
			c2.35,5.11,4.43,10.33,5.87,15.79c1.75,6.66,2.9,13.43,3.58,20.28c0.87,8.81,0.94,17.63,0.33,26.45
			C320.51,350.8,319.95,354.83,319.49,359.07z"/>
		<path d="M312.96,149.03c-1.72,4.19-4.35,7.38-8.05,9.69c-8.69,5.42-20.23,3.29-26.43-4.89c-5.63-7.43-5.35-17.75,0.67-24.9
			c6.01-7.13,16.15-9.14,24.43-4.84c8.29,4.31,12.47,13.74,10.08,22.77C313.49,147.54,313.24,148.19,312.96,149.03z M282.34,138.01
			c-0.1,0.53-0.3,1.06-0.28,1.59c0.06,1.39,1.08,2.52,2.4,2.81c1.25,0.27,2.55-0.27,3.24-1.36c0.68-1.07,0.6-2.47-0.19-3.51
			c-0.82-1.09-2.28-1.55-3.56-0.99C283.42,136.79,282.99,137.3,282.34,138.01z"/>
	</g>
</g>
</svg>
