<?xml version="1.0" encoding="utf-8"?>
<!-- Generator: Adobe Adobe Illustrator 24.2.0, SVG Export Plug-In . SVG Version: 6.00 Build 0)  -->
<svg version="1.1" id="Layer_1" xmlns="http://www.w3.org/2000/svg" xmlns:xlink="http://www.w3.org/1999/xlink" x="0px" y="0px"
	 viewBox="0 0 640 480" style="enable-background:new 0 0 640 480;" xml:space="preserve">
<g>
	<g>
		<path d="M327.81,159.42c-0.28-0.3-0.48-0.45-0.95-0.84c0.19,2.69,0.36,5.11,0.53,7.52c0.61,8.2,0.25,16.39-0.44,24.56
			c-1.72,20.44-6.53,40.34-10.76,60.35c-1.45,6.86-1.96,13.86-1.72,20.85c0.51,15.1,1.54,30.17,3.39,45.17
			c2.18,17.67,5.14,35.18,10.87,52.11c2.05,6.06,4.4,12.02,7.95,17.37c1.8,2.71,3.96,5.22,6.26,7.52c1.29,1.29,3.19,1.99,4.85,2.89
			c2.4,1.31,3.62,3.57,3.14,5.95c-0.55,2.73-3.11,4.61-5.96,4.14c-1.42-0.23-2.83-0.79-4.12-1.44c-3.86-1.92-6.94-4.8-9.63-8.12
			c-4.45-5.49-7.6-11.72-10.23-18.22c-4.91-12.13-7.96-24.79-10.35-37.62c-2.17-11.63-3.72-23.35-4.78-35.13
			c-0.07-0.75-0.26-1.48-0.75-2.2c-0.41,3.8-0.79,7.6-1.24,11.39c-2.16,18.2-5.36,36.19-10.9,53.7c-2.32,7.33-5.09,14.49-8.76,21.27
			c-2.56,4.73-5.5,9.19-9.41,12.93c-3.25,3.1-6.94,5.47-11.46,6.11c-1.57,0.22-3.3,0.16-4.81-0.27c-2.26-0.64-3.47-2.68-3.45-4.94
			c0.02-2.25,1.34-4.1,3.54-4.92c0.48-0.18,1-0.38,1.5-0.39c3.2-0.02,5.71-1.58,7.6-3.89c2.45-2.99,4.82-6.1,6.74-9.45
			c4.7-8.22,7.63-17.17,10.17-26.24c4.07-14.58,6.63-29.45,8.43-44.46c1.94-16.22,2.81-32.5,2.92-48.82
			c0.01-1.88-0.17-3.81-0.61-5.63c-4.57-19.27-7.4-38.8-9.2-58.5c-0.95-10.42-1.3-20.85-0.78-31.29c0.19-3.96,0.76-7.9,1.16-11.84
			c0.06-0.59,0.14-1.18,0.26-2.14c-0.74,0.43-1.28,0.61-1.65,0.97c-2.92,2.74-5.29,5.91-7.19,9.43c-4.19,7.77-6.45,16.17-7.74,24.83
			c-3.39,22.83-0.99,45.26,4.92,67.41c2.27,8.52,5.24,16.8,8.89,24.83c0.35,0.78,0.7,1.59,0.85,2.43c0.32,1.68-0.48,3.19-1.9,3.89
			c-1.51,0.74-3.32,0.39-4.43-1.02c-0.58-0.73-1-1.61-1.39-2.47c-6.72-14.88-11.1-30.44-13.68-46.54
			c-2.03-12.66-2.67-25.4-1.87-38.19c0.71-11.34,2.7-22.44,7.09-33c2.27-5.46,5.15-10.55,9.17-14.93c3.93-4.29,8.61-7.4,14.35-8.79
			c1.16-0.28,2.22-0.95,3.38-1.28c6.42-1.85,12.9-2.24,19.42-0.55c2.67,0.69,5.29,1.53,7.93,2.32c2.88,0.86,5.27,2.53,7.39,4.61
			c3.12,3.07,5.39,6.72,7.29,10.62c3.92,8.07,6.14,16.65,7.72,25.43c2.36,13.14,3.04,26.4,2.48,39.71
			c-0.68,16.18-2.85,32.16-8.26,47.51c-1.54,4.38-3.69,8.54-5.61,12.78c-0.35,0.77-0.87,1.5-1.46,2.12
			c-1.22,1.28-2.84,1.5-4.25,0.73c-1.49-0.82-2.17-2.47-1.68-4.21c0.14-0.49,0.36-0.97,0.6-1.42c5.44-9.88,8.37-20.59,10.38-31.58
			c2.9-15.87,3.72-31.88,2.51-47.96c-0.83-11.04-2.49-21.95-6.11-32.47C332.42,167.7,330.58,163.43,327.81,159.42z"/>
		<path d="M334.49,115.65c-0.44,6.2-2.88,11.2-7.32,15.18c-10.28,9.21-29.4,6.57-34.49-9.91c-4.17-13.5,5.17-27.08,19.29-27.81
			c12.5-0.64,21.42,8.6,22.46,19.45C334.52,113.51,334.48,114.47,334.49,115.65z M307.35,111.1c0.19-0.56,0.48-1.11,0.55-1.69
			c0.17-1.44-0.61-2.86-1.83-3.36c-1.2-0.49-2.34-0.33-3.34,0.55c-1.04,0.92-1.31,2.36-0.72,3.75
			C302.99,112.66,304.87,113.05,307.35,111.1z"/>
	</g>
</g>
</svg>
