<?xml version="1.0" encoding="UTF-8"?>
<svg id="Layer_1" data-name="Layer 1" xmlns="http://www.w3.org/2000/svg" viewBox="0 0 147.47 430.2">
  <path d="M35.69,106.78c5.56,6.65,11.95,12.07,19.25,16.38,3.53,2.08,7.4,3.4,11.42,4.19,4.42.87,8.86,1.46,13.38,1.7,4.58.24,9.1,1.08,13.56,2.18,10.81,2.65,20.54,7.5,29.13,14.56,5.41,4.45,10.05,9.61,13.89,15.49,4.45,6.83,7.58,14.18,9.44,22.13,2.03,8.66,2.26,17.34.69,26.04-1.95,10.78-6.25,20.57-12.95,29.3-7.29,9.5-16.42,16.63-27.27,21.59-.77.35-1.56.68-2.38.9-2,.55-3.91.24-5.55-1.04-3.35-2.62-3.19-5.93-.43-8.74.75-.76,1.8-1.27,2.8-1.73,5.6-2.56,10.74-5.82,15.33-9.93,4.33-3.88,8-8.29,11.03-13.27,3.71-6.1,6.09-12.7,7.25-19.72,1.13-6.85.95-13.69-.58-20.5-2.71-12.09-8.76-22.17-18.03-30.33-9.04-7.96-19.58-12.75-31.5-14.37-16.09-2.19-30.92,1.24-44.23,10.57-9.12,6.39-15.78,14.81-19.89,25.24-2.66,6.74-3.98,13.73-3.87,20.91.16,10.39,2.83,20.15,8.43,28.99,2.74,4.32,6.18,8.08,9.92,11.58,8.6,8.04,18.72,13.41,29.87,16.94,2.59.82,5.21,1.52,7.85,2.16,9.66,2.34,18.63,6.28,27.09,11.45,7.43,4.55,14.11,10.03,20.03,16.42,4.05,4.37,7.62,9.1,10.77,14.17,4.79,7.71,8.22,15.99,10.52,24.75,1.17,4.44,1.83,8.99,2.21,13.56.73,8.78.17,17.49-1.86,26.07-2.11,8.9-5.55,17.26-10.39,25.05-4.61,7.42-10.2,13.98-16.78,19.7-8.21,7.15-17.45,12.61-27.63,16.48-4.77,1.81-9.65,3.25-14.65,4.25-1.15.23-2.37.35-3.53.24-3.71-.36-6.03-3.82-5.05-7.35.55-1.97,1.91-3.19,3.74-3.87,1.11-.41,2.28-.66,3.44-.92,12.75-2.81,24.2-8.33,34.22-16.69,6.84-5.7,12.5-12.43,16.91-20.2,4.5-7.92,7.47-16.35,8.73-25.36,1.33-9.53.91-19.01-1.48-28.32-2.54-9.88-6.89-18.94-13.06-27.13-10.66-14.14-24.53-23.75-41.25-29.37-1.43-.48-2.87-1.03-4.65-.9.28.54.44.99.71,1.37,6.88,9.52,11.93,19.91,15.16,31.22,2.73,9.56,3.93,19.28,3.38,29.21-.28,5.09-.96,10.14-2.27,15.09-2.75,10.43-7.49,19.82-14.81,27.82-1.66,1.81-3.46,3.51-5.35,5.08-2.05,1.71-4.44,2.07-6.92.92-2.99-1.39-4.19-4.78-2.7-7.73.41-.81,1-1.6,1.68-2.21,3.51-3.13,6.62-6.6,9.05-10.62,1.4-2.32,2.78-4.68,3.87-7.16,2.62-5.94,4.19-12.18,4.78-18.67.73-8.02.24-15.96-1.48-23.81-1.58-7.16-4.06-14-7.4-20.54-2.75-5.39-5.95-10.48-9.74-15.19-5.85-7.26-12.49-13.6-20.54-18.45-9.38-5.65-17.03-13.12-23.01-22.34-4.04-6.23-7.45-12.74-9.91-19.75-.34-.96-.61-1.94-.9-2.92-2.76-9.31-3.75-18.8-2.86-28.47.61-6.62,2.08-13.05,4.32-19.33,1.86-5.22,4.22-10.19,7.08-14.93,3.83-6.36,8.39-12.16,13.76-17.29,2.39-2.28,4.95-4.39,7.43-6.58.5-.44,1.01-.88,1.66-1.44-.64-.68-1.18-1.3-1.77-1.86-3.7-3.52-7.05-7.34-10.09-11.45-2.69-3.62-5.07-7.44-7.1-11.46-3.66-7.24-6.21-14.85-7.52-22.89-1.65-10.15-1.12-20.17,1.68-30.02,3.02-10.65,8.44-19.96,16.22-27.87,7.84-7.97,17.13-13.55,27.68-17.1,1.38-.46,2.77-.8,4.25-.61,3.79.47,6.16,4.1,4.98,7.63-.58,1.73-1.86,2.81-3.44,3.56-.84.4-1.74.67-2.62.98-8.75,3.02-16.35,7.85-22.7,14.58-4.23,4.49-7.56,9.59-10,15.26-3.92,9.1-5.1,18.58-4.16,28.41.64,6.67,2.37,13.03,5.02,19.13,2.69,6.18,6.21,11.88,10.7,17.17Z"/>
  <path d="M106.17,96.54c.9,3.37,1.13,6.57.41,9.78-2.01,9-7.68,14.67-16.44,16.92-8.85,2.27-16.74-.06-22.96-6.79-7.31-7.91-6.59-18.74-2.03-25.69,7.73-11.76,25.76-14.18,36.41-2.57,2.14,2.34,3.72,5.05,4.61,8.35ZM73.05,97.09c.57.48,1.07,1.1,1.72,1.41,1.8.86,3.93-.06,4.55-1.86.61-1.78-.32-3.73-2.05-4.3-1.98-.65-4.15.46-4.53,2.42-.12.63.08,1.32.31,2.33Z"/>
</svg>